<svg width="209" height="47" viewBox="0 0 209 47" fill="none" xmlns="http://www.w3.org/2000/svg">
<path d="M208.017 46.1136C208.293 46.1043 208.509 45.8731 208.5 45.5971L208.349 41.0996C208.34 40.8237 208.109 40.6074 207.833 40.6167C207.557 40.6259 207.34 40.8571 207.35 41.1331L207.484 45.1309L203.486 45.2648C203.21 45.274 202.994 45.5052 203.003 45.7812C203.012 46.0572 203.243 46.2735 203.519 46.2642L208.017 46.1136ZM1.35707 45.9639C1.57953 45.7369 1.80448 45.5093 2.03193 45.2812L1.32372 44.5752C1.0943 44.8053 0.867364 45.0349 0.642929 45.2639L1.35707 45.9639ZM4.86413 42.5326C5.33126 42.0936 5.80704 41.6531 6.29135 41.2115L5.61755 40.4726C5.12957 40.9176 4.65011 41.3614 4.1793 41.8039L4.86413 42.5326ZM9.24253 38.5985C9.73505 38.1749 10.2351 37.7507 10.7425 37.3263L10.101 36.5592C9.59001 36.9866 9.08645 37.4137 8.59042 37.8404L9.24253 38.5985ZM13.7941 34.8432C14.3073 34.4368 14.8271 34.0307 15.3534 33.625L14.7429 32.833C14.2131 33.2413 13.6899 33.6502 13.1733 34.0592L13.7941 34.8432ZM18.4945 31.267C19.0251 30.8791 19.5615 30.492 20.1037 30.106L19.5238 29.2913C18.9781 29.6798 18.4383 30.0693 17.9043 30.4597L18.4945 31.267ZM23.3278 27.8699C23.8734 27.5014 24.4242 27.1342 24.9802 26.7685L24.4307 25.933C23.8712 26.301 23.317 26.6705 22.7681 27.0413L23.3278 27.8699ZM28.2828 24.6533C28.8416 24.3048 29.4052 23.9581 29.9735 23.6133L29.4547 22.7584C28.883 23.1053 28.3159 23.4541 27.7537 23.8047L28.2828 24.6533ZM33.3509 21.6193C33.9217 21.2915 34.4968 20.9659 35.0762 20.6425L34.5889 19.7693C34.0059 20.0947 33.4272 20.4223 32.8529 20.7521L33.3509 21.6193ZM38.5255 18.7716C39.1072 18.4651 39.6929 18.161 40.2825 17.8596L39.8273 16.9692C39.234 17.2725 38.6447 17.5785 38.0594 17.8868L38.5255 18.7716ZM43.8003 16.1149C44.3922 15.8303 44.9877 15.5485 45.5867 15.2696L45.1646 14.363C44.5618 14.6437 43.9626 14.9273 43.367 15.2136L43.8003 16.1149ZM49.1697 13.655C49.771 13.3931 50.3755 13.1341 50.9833 12.8784L50.5955 11.9566C49.9837 12.2141 49.3753 12.4746 48.7703 12.7383L49.1697 13.655ZM54.628 11.3987C55.2378 11.1601 55.8507 10.9247 56.4667 10.6928L56.1143 9.75696C55.4943 9.99041 54.8774 10.2273 54.2636 10.4674L54.628 11.3987ZM60.169 9.35311C60.7867 9.13863 61.4073 8.92768 62.0306 8.72035L61.715 7.77146C61.0875 7.98017 60.4628 8.19254 59.841 8.40843L60.169 9.35311ZM65.7865 7.52607C66.4113 7.33654 67.0386 7.15075 67.6686 6.96881L67.3911 6.00808C66.7568 6.19127 66.1252 6.37832 65.4962 6.56913L65.7865 7.52607ZM71.4737 5.92551C72.1045 5.76176 72.7377 5.60196 73.3734 5.44621L73.1354 4.47494C72.4953 4.63179 71.8576 4.7927 71.2224 4.95758L71.4737 5.92551ZM77.2156 4.56108C77.8539 4.42336 78.4946 4.28981 79.1374 4.16052L78.9403 3.18015C78.2928 3.31036 77.6476 3.44487 77.0047 3.58357L77.2156 4.56108ZM83.0052 3.43947C83.6523 3.32835 84.3014 3.22163 84.9526 3.11942L84.7975 2.13151C84.1415 2.23448 83.4877 2.34197 82.836 2.45389L83.0052 3.43947ZM88.8388 2.56669C89.4905 2.48362 90.1441 2.40513 90.7996 2.33132L90.6878 1.3376C90.0273 1.41196 89.3689 1.49103 88.7124 1.57472L88.8388 2.56669ZM94.7067 1.94945C95.3597 1.89533 96.0145 1.84593 96.671 1.80134L96.6033 0.803638C95.9418 0.848562 95.282 0.898334 94.6241 0.952864L94.7067 1.94945ZM100.599 1.59352C101.252 1.56878 101.906 1.54888 102.562 1.5339L102.539 0.534162C101.878 0.549257 101.219 0.56931 100.561 0.594234L100.599 1.59352ZM106.506 1.50368C107.157 1.50858 107.809 1.51841 108.463 1.53323L108.486 0.533487C107.827 0.518548 107.169 0.508649 106.513 0.503707L106.506 1.50368ZM112.403 1.68284C113.055 1.7176 113.708 1.75742 114.363 1.80236L114.432 0.804707C113.772 0.759416 113.113 0.719293 112.456 0.68426L112.403 1.68284ZM118.277 2.13115C118.932 2.19626 119.588 2.26657 120.245 2.34216L120.359 1.34871C119.697 1.27253 119.036 1.20167 118.376 1.13606L118.277 2.13115ZM124.129 2.84903C124.777 2.94365 125.427 3.0435 126.077 3.14862L126.237 2.16144C125.581 2.0555 124.927 1.95488 124.274 1.85952L124.129 2.84903ZM129.952 3.83571C130.591 3.95915 131.232 4.08777 131.873 4.22165L132.078 3.24274C131.431 3.10784 130.786 2.97823 130.141 2.85383L129.952 3.83571ZM135.733 5.08844C136.363 5.24009 136.995 5.39688 137.627 5.55888L137.875 4.59018C137.238 4.42695 136.602 4.26897 135.967 4.11617L135.733 5.08844ZM141.419 6.59088C142.053 6.77341 142.687 6.96125 143.322 7.15446L143.613 6.19774C142.973 6.00309 142.334 5.81385 141.696 5.62995L141.419 6.59088ZM147.046 8.34642C147.667 8.55485 148.288 8.76848 148.909 8.98736L149.241 8.04413C148.615 7.82365 147.99 7.60847 147.365 7.3985L147.046 8.34642ZM152.613 10.3512C153.218 10.5838 153.824 10.8215 154.43 11.0643L154.802 10.1359C154.191 9.89143 153.581 9.65205 152.972 9.41775L152.613 10.3512ZM158.074 12.5826C158.677 12.8438 159.281 13.1101 159.885 13.3816L160.295 12.4694C159.687 12.1961 159.079 11.9279 158.471 11.6649L158.074 12.5826ZM163.426 15.0296C164.017 15.3142 164.609 15.6039 165.201 15.8986L165.646 15.0034C165.051 14.7067 164.455 14.4152 163.86 14.1286L163.426 15.0296ZM168.708 17.7024C169.281 18.0061 169.853 18.3146 170.426 18.628L170.906 17.7506C170.329 17.4352 169.753 17.1247 169.177 16.819L168.708 17.7024ZM173.868 20.5667C174.44 20.8982 175.012 21.2346 175.585 21.5759L176.097 20.717C175.521 20.3736 174.945 20.0351 174.37 19.7016L173.868 20.5667ZM178.906 23.6107C179.461 23.9592 180.015 24.3123 180.569 24.6701L181.112 23.8299C180.554 23.4699 179.996 23.1147 179.439 22.7642L178.906 23.6107ZM183.881 26.8616C184.414 27.2234 184.947 27.5896 185.481 27.9603L186.051 27.139C185.515 26.7663 184.978 26.398 184.442 26.0341L183.881 26.8616ZM188.684 30.2381C189.218 30.6267 189.752 31.0198 190.286 31.4175L190.883 30.6154C190.346 30.2155 189.809 29.8202 189.272 29.4295L188.684 30.2381ZM193.41 33.7942C193.922 34.1925 194.435 34.5951 194.947 35.0019L195.569 34.2186C195.054 33.8097 194.539 33.4051 194.024 33.0047L193.41 33.7942ZM198.023 37.4944C198.536 37.9185 199.049 38.3469 199.562 38.7797L200.207 38.0154C199.691 37.5805 199.176 37.15 198.661 36.7238L198.023 37.4944ZM202.506 41.3126C202.997 41.7428 203.488 42.1769 203.978 42.6152L204.645 41.8694C204.152 41.4291 203.659 40.9928 203.166 40.5606L202.506 41.3126ZM206.923 45.2939C207.168 45.5213 207.413 45.7496 207.658 45.979L208.342 45.2487C208.095 45.0182 207.849 44.7888 207.602 44.5605L206.923 45.2939Z" fill="#5F5F5F"/>
</svg>
