<svg width="209" height="47" viewBox="0 0 209 47" fill="none" xmlns="http://www.w3.org/2000/svg">
<path d="M208.017 0.499699C208.293 0.508945 208.509 0.74017 208.5 1.01616L208.349 5.51363C208.34 5.78962 208.109 6.00586 207.833 5.99662C207.557 5.98737 207.34 5.75615 207.35 5.48016L207.484 1.4824L203.486 1.34851C203.21 1.33926 202.994 1.10804 203.003 0.83205C203.012 0.556061 203.243 0.339825 203.519 0.349068L208.017 0.499699ZM1.35707 0.649422C1.57953 0.876369 1.80448 1.10394 2.03193 1.3321L1.32372 2.03811C1.0943 1.80796 0.867364 1.57839 0.642929 1.34942L1.35707 0.649422ZM4.86413 4.08067C5.33126 4.51968 5.80704 4.96015 6.29135 5.40177L5.61755 6.14069C5.12957 5.69572 4.65011 5.25184 4.1793 4.80937L4.86413 4.08067ZM9.24253 8.01476C9.73505 8.4384 10.2351 8.86256 10.7425 9.28697L10.101 10.0541C9.59001 9.62669 9.08645 9.19955 8.59042 8.77288L9.24253 8.01476ZM13.7941 11.7701C14.3073 12.1765 14.8271 12.5826 15.3534 12.9883L14.7429 13.7803C14.2131 13.372 13.6899 12.9631 13.1733 12.554L13.7941 11.7701ZM18.4945 15.3463C19.0251 15.7342 19.5615 16.1213 20.1037 16.5073L19.5238 17.322C18.9781 16.9335 18.4383 16.544 17.9043 16.1536L18.4945 15.3463ZM23.3278 18.7433C23.8734 19.1119 24.4242 19.4791 24.9802 19.8447L24.4307 20.6802C23.8712 20.3123 23.317 19.9428 22.7681 19.572L23.3278 18.7433ZM28.2828 21.96C28.8416 22.3085 29.4052 22.6552 29.9735 23L29.4547 23.8549C28.883 23.508 28.3159 23.1591 27.7537 22.8085L28.2828 21.96ZM33.3509 24.994C33.9217 25.3218 34.4968 25.6474 35.0762 25.9708L34.5889 26.844C34.0059 26.5186 33.4272 26.191 32.8529 25.8612L33.3509 24.994ZM38.5255 27.8417C39.1072 28.1482 39.6929 28.4522 40.2825 28.7537L39.8273 29.6441C39.234 29.3408 38.6447 29.0348 38.0594 28.7264L38.5255 27.8417ZM43.8003 30.4984C44.3922 30.783 44.9877 31.0648 45.5867 31.3437L45.1646 32.2503C44.5618 31.9696 43.9626 31.686 43.367 31.3997L43.8003 30.4984ZM49.1697 32.9583C49.771 33.2202 50.3755 33.4791 50.9833 33.7349L50.5955 34.6566C49.9837 34.3992 49.3753 34.1386 48.7703 33.875L49.1697 32.9583ZM54.628 35.2146C55.2378 35.4532 55.8507 35.6885 56.4667 35.9205L56.1143 36.8563C55.4943 36.6229 54.8774 36.386 54.2636 36.1459L54.628 35.2146ZM60.169 37.2602C60.7867 37.4746 61.4073 37.6856 62.0306 37.8929L61.715 38.8418C61.0875 38.6331 60.4628 38.4207 59.841 38.2048L60.169 37.2602ZM65.7865 39.0872C66.4113 39.2767 67.0386 39.4625 67.6686 39.6445L67.3911 40.6052C66.7568 40.422 66.1252 40.235 65.4962 40.0441L65.7865 39.0872ZM71.4737 40.6878C72.1045 40.8515 72.7377 41.0113 73.3734 41.1671L73.1354 42.1383C72.4953 41.9815 71.8576 41.8206 71.2224 41.6557L71.4737 40.6878ZM77.2156 42.0522C77.8539 42.1899 78.4946 42.3235 79.1374 42.4528L78.9403 43.4331C78.2928 43.3029 77.6476 43.1684 77.0047 43.0297L77.2156 42.0522ZM83.0052 43.1738C83.6523 43.2849 84.3014 43.3917 84.9526 43.4939L84.7975 44.4818C84.1415 44.3788 83.4877 44.2713 82.836 44.1594L83.0052 43.1738ZM88.8388 44.0466C89.4905 44.1297 90.1441 44.2081 90.7996 44.282L90.6878 45.2757C90.0273 45.2013 89.3689 45.1222 88.7124 45.0386L88.8388 44.0466ZM94.7067 44.6638C95.3597 44.718 96.0145 44.7674 96.671 44.8119L96.6033 45.8096C95.9418 45.7647 95.282 45.7149 94.6241 45.6604L94.7067 44.6638ZM100.599 45.0198C101.252 45.0445 101.906 45.0644 102.562 45.0794L102.539 46.0791C101.878 46.064 101.219 46.044 100.561 46.019L100.599 45.0198ZM106.506 45.1096C107.157 45.1047 107.809 45.0949 108.463 45.0801L108.486 46.0798C107.827 46.0947 107.169 46.1046 106.513 46.1096L106.506 45.1096ZM112.403 44.9304C113.055 44.8957 113.708 44.8559 114.363 44.8109L114.432 45.8086C113.772 45.8539 113.113 45.894 112.456 45.929L112.403 44.9304ZM118.277 44.4821C118.932 44.417 119.588 44.3467 120.245 44.2711L120.359 45.2646C119.697 45.3407 119.036 45.4116 118.376 45.4772L118.277 44.4821ZM124.129 43.7643C124.777 43.6696 125.427 43.5698 126.077 43.4647L126.237 44.4518C125.581 44.5578 124.927 44.6584 124.274 44.7538L124.129 43.7643ZM129.952 42.7776C130.591 42.6541 131.232 42.5255 131.873 42.3916L132.078 43.3705C131.431 43.5054 130.786 43.6351 130.141 43.7594L129.952 42.7776ZM135.733 41.5248C136.363 41.3732 136.995 41.2164 137.627 41.0544L137.875 42.0231C137.238 42.1863 136.602 42.3443 135.967 42.4971L135.733 41.5248ZM141.419 40.0224C142.053 39.8399 142.687 39.652 143.322 39.4588L143.613 40.4155C142.973 40.6102 142.334 40.7994 141.696 40.9833L141.419 40.0224ZM147.046 38.2669C147.667 38.0584 148.288 37.8448 148.909 37.6259L149.241 38.5692C148.615 38.7896 147.99 39.0048 147.365 39.2148L147.046 38.2669ZM152.613 36.2621C153.218 36.0295 153.824 35.7918 154.43 35.549L154.802 36.4773C154.191 36.7218 153.581 36.9612 152.972 37.1955L152.613 36.2621ZM158.074 34.0307C158.677 33.7695 159.281 33.5032 159.885 33.2317L160.295 34.1438C159.687 34.4172 159.079 34.6854 158.471 34.9484L158.074 34.0307ZM163.426 31.5837C164.017 31.2991 164.609 31.0094 165.201 30.7147L165.646 31.6099C165.051 31.9066 164.455 32.1981 163.86 32.4847L163.426 31.5837ZM168.708 28.9109C169.281 28.6072 169.853 28.2987 170.426 27.9853L170.906 28.8627C170.329 29.178 169.753 29.4886 169.177 29.7943L168.708 28.9109ZM173.868 26.0466C174.44 25.7151 175.012 25.3787 175.585 25.0374L176.097 25.8962C175.521 26.2397 174.945 26.5781 174.37 26.9117L173.868 26.0466ZM178.906 23.0026C179.461 22.6541 180.015 22.301 180.569 21.9432L181.112 22.7834C180.554 23.1434 179.996 23.4986 179.439 23.8491L178.906 23.0026ZM183.881 19.7517C184.414 19.3899 184.947 19.0237 185.481 18.653L186.051 19.4743C185.515 19.847 184.978 20.2153 184.442 20.5792L183.881 19.7517ZM188.684 16.3752C189.218 15.9866 189.752 15.5934 190.286 15.1957L190.883 15.9979C190.346 16.3978 189.809 16.793 189.272 17.1838L188.684 16.3752ZM193.41 12.8191C193.922 12.4208 194.435 12.0182 194.947 11.6114L195.569 12.3947C195.054 12.8036 194.539 13.2082 194.024 13.6086L193.41 12.8191ZM198.023 9.11884C198.536 8.69478 199.049 8.26638 199.562 7.83361L200.207 8.59785C199.691 9.03275 199.176 9.46327 198.661 9.88945L198.023 9.11884ZM202.506 5.30067C202.997 4.87053 203.488 4.43634 203.978 3.99807L204.645 4.7439C204.152 5.18422 203.659 5.62046 203.166 6.05265L202.506 5.30067ZM206.923 1.31933C207.168 1.092 207.413 0.863632 207.658 0.634232L208.342 1.36461C208.095 1.59504 207.849 1.82444 207.602 2.05281L206.923 1.31933Z" fill="#CACACA"/>
</svg>
