<svg width="12" height="11" viewBox="0 0 12 11" fill="none" xmlns="http://www.w3.org/2000/svg">
<path d="M3.37249 0.924335C4.05668 0.938394 4.72312 1.25024 5.20083 2.07799C5.37833 2.38501 5.82139 2.38501 5.99961 2.07799C6.47746 1.25038 7.1439 0.938536 7.82794 0.924335C8.51213 0.909424 9.21251 1.23206 9.64449 1.75124C10.4781 2.75423 10.5846 4.50701 9.36417 5.73494L5.60015 8.97808L1.83556 5.73494C0.615866 4.50716 0.721661 2.75423 1.55595 1.75124C1.98793 1.23206 2.68831 0.909424 3.37249 0.924335ZM3.39237 0.000725866C2.41466 -0.0201491 1.46577 0.416379 0.845917 1.16106C-0.300501 2.5398 -0.369374 4.83249 1.18389 6.39087C1.19213 6.39925 1.20093 6.4072 1.20988 6.4153L5.29924 9.9372C5.47234 10.0859 5.72824 10.0859 5.9012 9.9372L9.99127 6.4153C10.0002 6.4072 10.0083 6.39925 10.0165 6.39087C11.5698 4.83235 11.5001 2.5398 10.3538 1.16106C9.73481 0.416237 8.78507 -0.0202911 7.80792 0.000725866C6.99735 0.0174826 6.2156 0.467927 5.60015 1.20537C4.98483 0.467927 4.20309 0.0174826 3.39237 0.000725866Z" fill="black"/>
</svg>
