<svg width="24" height="27" viewBox="0 0 24 27" fill="none" xmlns="http://www.w3.org/2000/svg">
<path d="M4.57143 1.38098L1 6.14289V22.8096C1 23.441 1.25085 24.0466 1.69736 24.4931C2.14388 24.9397 2.74948 25.1905 3.38095 25.1905H20.0476C20.6791 25.1905 21.2847 24.9397 21.7312 24.4931C22.1777 24.0466 22.4286 23.441 22.4286 22.8096V6.14289L18.8571 1.38098H4.57143Z" stroke="black" stroke-width="2" stroke-linecap="round" stroke-linejoin="round"/>
<path d="M1 6.14288H22.4286" stroke="black" stroke-width="2" stroke-linecap="round" stroke-linejoin="round"/>
<path d="M16.4769 10.9048C16.4769 12.1677 15.9752 13.3789 15.0822 14.272C14.1892 15.165 12.978 15.6667 11.715 15.6667C10.4521 15.6667 9.24088 15.165 8.34785 14.272C7.45482 13.3789 6.95313 12.1677 6.95312 10.9048" stroke="black" stroke-width="2" stroke-linecap="round" stroke-linejoin="round"/>
</svg>
