<svg width="16" height="18" viewBox="0 0 16 18" fill="none" xmlns="http://www.w3.org/2000/svg">
<path d="M7.39406 8.67065C8.58525 8.67065 9.61672 8.24342 10.4595 7.4005C11.3023 6.55772 11.7295 5.52652 11.7295 4.33519C11.7295 3.14428 11.3023 2.11294 10.4594 1.26988C9.61645 0.427229 8.58511 0 7.39406 0C6.20273 0 5.17153 0.427229 4.32875 1.27002C3.48596 2.1128 3.05859 3.14414 3.05859 4.33519C3.05859 5.52652 3.48596 6.55785 4.32888 7.40064C5.17181 8.24329 6.20314 8.67065 7.39406 8.67065Z" fill="#252525"/>
<path d="M14.981 13.841C14.9567 13.4903 14.9075 13.1077 14.8351 12.7036C14.7621 12.2966 14.668 11.9118 14.5554 11.5601C14.4391 11.1966 14.2809 10.8376 14.0853 10.4936C13.8824 10.1366 13.644 9.82566 13.3764 9.56981C13.0967 9.30216 12.7542 9.08697 12.3582 8.93C11.9635 8.77386 11.5261 8.69476 11.0582 8.69476C10.8745 8.69476 10.6968 8.77015 10.3536 8.99359C10.1424 9.13133 9.89531 9.29063 9.61956 9.46682C9.38376 9.61705 9.06434 9.75782 8.6698 9.88526C8.28487 10.0098 7.89403 10.073 7.50828 10.073C7.12252 10.073 6.73182 10.0098 6.34648 9.88526C5.95235 9.75795 5.63292 9.61719 5.39741 9.46696C5.12426 9.29241 4.87707 9.13311 4.6627 8.99345C4.31993 8.77002 4.14209 8.69462 3.95834 8.69462C3.49033 8.69462 3.05308 8.77386 2.65853 8.93014C2.26275 9.08683 1.92012 9.30202 1.64011 9.56995C1.37273 9.82593 1.13419 10.1367 0.931496 10.4936C0.736078 10.8376 0.577877 11.1965 0.461422 11.5602C0.348951 11.9119 0.254881 12.2966 0.181822 12.7036C0.10945 13.1071 0.060287 13.4898 0.03598 13.8414C0.0120849 14.1858 0 14.5433 0 14.9043C0 15.8439 0.298689 16.6046 0.887689 17.1656C1.46941 17.7191 2.23913 18 3.17516 18H11.8422C12.7782 18 13.5477 17.7193 14.1295 17.1656C14.7187 16.605 15.0174 15.8442 15.0174 14.9042C15.0172 14.5415 15.005 14.1838 14.981 13.841Z" fill="#252525"/>
</svg>
