<svg width="19" height="19" viewBox="0 0 19 19" fill="none" xmlns="http://www.w3.org/2000/svg">
<path d="M14.2492 10.8571C13.4439 10.8571 12.6567 11.0959 11.9872 11.5433C11.3177 11.9907 10.7958 12.6265 10.4877 13.3705C10.1795 14.1145 10.0989 14.9331 10.256 15.7229C10.4131 16.5126 10.8008 17.2381 11.3702 17.8075C11.9396 18.3769 12.6651 18.7647 13.4549 18.9218C14.2446 19.0789 15.0633 18.9982 15.8072 18.6901C16.5512 18.3819 17.1871 17.8601 17.6344 17.1905C18.0818 16.521 18.3206 15.7338 18.3206 14.9286C18.3193 13.8491 17.89 12.8143 17.1267 12.051C16.3634 11.2878 15.3286 10.8584 14.2492 10.8571ZM15.6063 15.6071H14.9277V16.2857C14.9277 16.4657 14.8562 16.6383 14.729 16.7655C14.6017 16.8928 14.4291 16.9643 14.2492 16.9643C14.0692 16.9643 13.8966 16.8928 13.7693 16.7655C13.6421 16.6383 13.5706 16.4657 13.5706 16.2857V15.6071H12.892C12.7121 15.6071 12.5395 15.5356 12.4122 15.4084C12.2849 15.2811 12.2135 15.1085 12.2135 14.9286C12.2135 14.7486 12.2849 14.576 12.4122 14.4487C12.5395 14.3215 12.7121 14.25 12.892 14.25H13.5706V13.5714C13.5706 13.3915 13.6421 13.2189 13.7693 13.0916C13.8966 12.9643 14.0692 12.8929 14.2492 12.8929C14.4291 12.8929 14.6017 12.9643 14.729 13.0916C14.8562 13.2189 14.9277 13.3915 14.9277 13.5714V14.25H15.6063C15.7863 14.25 15.9589 14.3215 16.0861 14.4487C16.2134 14.576 16.2849 14.7486 16.2849 14.9286C16.2849 15.1085 16.2134 15.2811 16.0861 15.4084C15.9589 15.5356 15.7863 15.6071 15.6063 15.6071Z" fill="#252525"/>
<path d="M8.82143 14.9286C8.82323 13.5823 9.32452 12.2846 10.2282 11.2868C11.1319 10.2889 12.3738 9.66191 13.7132 9.52714C13.371 9.09426 12.935 8.74475 12.438 8.50495C11.941 8.26516 11.3961 8.14135 10.8442 8.14285C10.7389 8.14285 10.635 8.16738 10.5408 8.21449C10.4466 8.2616 10.3646 8.33001 10.3014 8.41428C9.18311 9.89153 5.7475 9.89153 4.62921 8.41428C4.56579 8.33024 4.48378 8.26201 4.38961 8.21492C4.29543 8.16783 4.19165 8.14317 4.08636 8.14285C3.17037 8.13824 2.28618 8.47846 1.60954 9.09589C0.932896 9.71331 0.513348 10.5627 0.434286 11.4753L0 16.2857C0 17.0056 0.285969 17.696 0.794996 18.205C1.30402 18.714 1.99441 19 2.71429 19H10.6712C10.0906 18.4923 9.62518 17.8664 9.30615 17.1643C8.98713 16.4621 8.82186 15.6998 8.82143 14.9286Z" fill="#252525"/>
<path d="M7.46401 0C2.03544 0 2.03544 8.14286 7.46401 8.14286C12.8926 8.14286 12.8926 0 7.46401 0Z" fill="#252525"/>
</svg>
