<svg width="18" height="15" viewBox="0 0 18 15" fill="none" xmlns="http://www.w3.org/2000/svg">
<path d="M17.4727 11.5303H0.527344C0.236109 11.5303 0 11.7664 0 12.0576C0 13.3197 1.02308 14.3428 2.28516 14.3428H15.7148C16.9769 14.3428 18 13.3197 18 12.0576C18 11.7664 17.7639 11.5303 17.4727 11.5303Z" fill="#252525"/>
<path d="M10.4062 1.79157V1.51074C10.4062 0.734105 9.77664 0.104492 9 0.104492C8.22336 0.104492 7.59375 0.734105 7.59375 1.51074V1.79157C8.05511 1.72214 8.52479 1.68652 9 1.68652C9.47521 1.68652 9.94489 1.72214 10.4062 1.79157Z" fill="#252525"/>
<path d="M14.8424 5.16102C13.282 3.60057 11.2073 2.74121 9.00053 2.74121C6.79374 2.74121 4.71906 3.60057 3.15861 5.16102C1.72315 6.59648 0.881543 8.46725 0.755859 10.4756H17.2452C17.1195 8.46725 16.2779 6.59648 14.8424 5.16102Z" fill="#252525"/>
</svg>
