<svg width="15" height="18" viewBox="0 0 15 18" fill="none" xmlns="http://www.w3.org/2000/svg">
<path d="M12.4617 0.483924C12.2891 0.185429 11.9677 0 11.6231 0H8.02148V4.26018H14.6458L12.4617 0.483924Z" fill="black"/>
<path d="M7.01227 0H3.3767C3.03141 0 2.71003 0.185765 2.53739 0.484933L0.361328 4.26018H7.01223V0H7.01227Z" fill="black"/>
<path d="M0 5.26979V16.0372C0 16.6917 0.532737 17.2241 1.18729 17.2241H13.8127C14.4673 17.2241 15 16.6917 15 16.0372V5.26979H0ZM9.79145 9.79785L7.18061 12.4087C7.08201 12.5073 6.95276 12.5568 6.82355 12.5568C6.69433 12.5568 6.56509 12.5073 6.46682 12.4087L5.24286 11.185C5.046 10.9882 5.046 10.6684 5.24286 10.4712C5.44007 10.274 5.75979 10.274 5.95699 10.4712L6.82358 11.3382L9.07769 9.08406C9.27489 8.88686 9.59462 8.88686 9.79148 9.08406C9.98869 9.28126 9.98869 9.60065 9.79145 9.79785Z" fill="black"/>
</svg>
