<svg width="15" height="16" viewBox="0 0 15 16" fill="none" xmlns="http://www.w3.org/2000/svg">
<path fill-rule="evenodd" clip-rule="evenodd" d="M7.5 0.224121C6.01664 0.224121 4.56659 0.663988 3.33323 1.4881C2.09986 2.31221 1.13856 3.48355 0.570907 4.85399C0.00324961 6.22444 -0.145275 7.73244 0.144114 9.1873C0.433503 10.6422 1.14781 11.9785 2.1967 13.0274C3.2456 14.0763 4.58197 14.7906 6.03682 15.08C7.49168 15.3694 8.99968 15.2209 10.3701 14.6532C11.7406 14.0856 12.9119 13.1243 13.736 11.8909C14.5601 10.6575 15 9.20748 15 7.72412C15 5.735 14.2098 3.82734 12.8033 2.42082C11.3968 1.0143 9.48913 0.224121 7.5 0.224121ZM6.96563 2.52568H8.03906V5.98974H6.96563V2.52568ZM7.5 12.2944C6.47873 12.2959 5.4864 11.9552 4.68135 11.3269C3.87629 10.6985 3.3049 9.81853 3.05835 8.82747C2.8118 7.83641 2.90429 6.79133 3.32107 5.85897C3.73786 4.92662 4.45491 4.16072 5.35781 3.6835V4.95381C4.78146 5.40052 4.35917 6.01623 4.15003 6.7148C3.9409 7.41336 3.95537 8.15984 4.19144 8.84977C4.42751 9.5397 4.87335 10.1386 5.4666 10.5626C6.05984 10.9866 6.7708 11.2146 7.5 11.2146C8.2292 11.2146 8.94016 10.9866 9.53341 10.5626C10.1266 10.1386 10.5725 9.5397 10.8086 8.84977C11.0446 8.15984 11.0591 7.41336 10.85 6.7148C10.6408 6.01623 10.2185 5.40052 9.64219 4.95381V3.6835C10.5451 4.16072 11.2621 4.92662 11.6789 5.85897C12.0957 6.79133 12.1882 7.83641 11.9417 8.82747C11.6951 9.81853 11.1237 10.6985 10.3187 11.3269C9.5136 11.9552 8.52127 12.2959 7.5 12.2944Z" fill="black"/>
</svg>
