<svg width="17" height="19" viewBox="0 0 17 19" fill="none" xmlns="http://www.w3.org/2000/svg">
<path d="M6.63906 1.32888H10.6258C10.802 1.32888 10.971 1.25887 11.0956 1.13426C11.2202 1.00965 11.2902 0.840647 11.2902 0.664423C11.2902 0.488199 11.2202 0.319192 11.0956 0.194583C10.971 0.0699742 10.802 -3.05176e-05 10.6258 -3.05176e-05L6.63906 -3.05176e-05C6.46284 -3.05176e-05 6.29383 0.0699742 6.16922 0.194583C6.04461 0.319192 5.97461 0.488199 5.97461 0.664423C5.97461 0.840647 6.04461 1.00965 6.16922 1.13426C6.29383 1.25887 6.46284 1.32888 6.63906 1.32888Z" fill="black"/>
<path d="M8.63164 2.65773C7.05465 2.65773 5.51306 3.12536 4.20184 4.0015C2.89061 4.87763 1.86864 6.12291 1.26515 7.57987C0.661658 9.03682 0.503757 10.64 0.811414 12.1867C1.11907 13.7334 1.87847 15.1541 2.99357 16.2692C4.10868 17.3843 5.52941 18.1437 7.0761 18.4514C8.6228 18.7591 10.226 18.6012 11.6829 17.9977C13.1399 17.3942 14.3852 16.3722 15.2613 15.061C16.1374 13.7497 16.6051 12.2082 16.6051 10.6312C16.6027 8.51721 15.7619 6.49053 14.2671 4.99574C12.7723 3.50094 10.7456 2.66012 8.63164 2.65773ZM12.3904 7.81211L9.10151 11.101C9.03981 11.1627 8.96657 11.2116 8.88595 11.245C8.80534 11.2784 8.71893 11.2956 8.63167 11.2956C8.54441 11.2956 8.45801 11.2785 8.37739 11.2451C8.29677 11.2117 8.22352 11.1627 8.16181 11.101C8.10011 11.0393 8.05116 10.9661 8.01777 10.8855C7.98437 10.8049 7.96718 10.7185 7.96718 10.6312C7.96717 10.5439 7.98435 10.4575 8.01774 10.3769C8.05113 10.2963 8.10007 10.223 8.16177 10.1613L11.4507 6.87245C11.5124 6.81075 11.5856 6.7618 11.6662 6.72841C11.7468 6.69501 11.8332 6.67783 11.9205 6.67782C12.0078 6.67782 12.0942 6.69501 12.1748 6.7284C12.2554 6.76179 12.3286 6.81073 12.3903 6.87243C12.452 6.93413 12.501 7.00737 12.5344 7.08799C12.5678 7.1686 12.585 7.25501 12.585 7.34226C12.585 7.42952 12.5678 7.51592 12.5344 7.59654C12.501 7.67716 12.4521 7.75041 12.3904 7.81211H12.3904Z" fill="black"/>
</svg>
