<svg width="45" height="57" viewBox="0 0 45 57" fill="none" xmlns="http://www.w3.org/2000/svg">
<path d="M40.1562 16.9219H4.84515C4.80874 17.3559 4.6776 15.0379 7.23425 53.3896C7.36896 55.4136 9.06448 57 11.094 57H33.9074C35.9369 57 37.6324 55.4136 37.7671 53.3896C40.326 15.0048 40.1918 17.3471 40.1562 16.9219ZM15.5304 49.8683C14.5416 49.9525 13.6864 49.2223 13.6011 48.2485L11.8199 27.7641C11.7341 26.7833 12.46 25.9205 13.4397 25.8348C14.4194 25.7502 15.2833 26.4749 15.369 27.4546L17.1502 47.939C17.236 48.9198 16.5101 49.7826 15.5304 49.8683ZM24.2819 48.0938C24.2819 49.0779 23.4848 49.875 22.5007 49.875C21.5165 49.875 20.7194 49.0779 20.7194 48.0938V27.6094C20.7194 26.6252 21.5165 25.8281 22.5007 25.8281C23.4848 25.8281 24.2819 26.6252 24.2819 27.6094V48.0938ZM33.1815 27.7641L31.4002 48.2485C31.3201 49.1759 30.5419 49.875 29.6279 49.875C28.5753 49.875 27.7606 48.9751 27.8511 47.939L29.6324 27.4546C29.7181 26.4749 30.5809 25.7502 31.5617 25.8348C32.5414 25.9205 33.2672 26.7833 33.1815 27.7641ZM40.8976 6.23438H32.2842C32.3022 6.00003 32.2976 6.17515 32.2976 3.86865C32.2976 1.73561 30.5619 0 28.4289 0H16.5725C14.4394 0 12.7038 1.73561 12.7038 3.86865C12.7038 6.13062 12.699 5.99914 12.7172 6.23438H4.1037C1.97066 6.23438 0.235051 7.96998 0.235051 10.103C0.235051 13.2851 0.230041 13.1343 0.247297 13.3594H44.7541C44.7715 13.1308 44.7663 13.2668 44.7663 10.103C44.7663 7.96998 43.0307 6.23438 40.8976 6.23438ZM28.7351 5.92822C28.7351 6.09744 28.5981 6.23438 28.4289 6.23438H16.5725C16.4032 6.23438 16.2663 6.09744 16.2663 5.92822V3.86865C16.2663 3.69943 16.4032 3.5625 16.5725 3.5625H28.4289C28.5981 3.5625 28.7351 3.69943 28.7351 3.86865V5.92822Z" fill="white"/>
</svg>
