<svg width="16" height="18" viewBox="0 0 16 18" fill="none" xmlns="http://www.w3.org/2000/svg">
<path d="M8.04633 4.63294C8.04597 4.62094 8.04552 4.60893 8.04451 4.59685C8.04349 4.58472 8.04199 4.57276 8.04037 4.56083C8.03948 4.55467 8.03923 4.54855 8.03822 4.54234L7.37377 0.555623C7.35947 0.469508 7.32834 0.387055 7.28217 0.312974C7.23599 0.238894 7.17567 0.174638 7.10465 0.123879C7.03363 0.0731199 6.95331 0.036852 6.86827 0.0171481C6.78323 -0.0025558 6.69514 -0.00530965 6.60903 0.00904391C6.52293 0.0233975 6.44049 0.0545771 6.36644 0.100801C6.29239 0.147025 6.22817 0.207388 6.17746 0.278439C6.12675 0.349491 6.09053 0.429839 6.07088 0.514892C6.05124 0.599946 6.04854 0.688037 6.06295 0.774133L6.59844 3.98714H5.05723V0.664878C5.05723 0.488654 4.98722 0.319648 4.86261 0.195039C4.738 0.0704295 4.569 0.00042486 4.39277 0.00042486C4.21655 0.00042486 4.04754 0.0704295 3.92293 0.195039C3.79833 0.319648 3.72832 0.488654 3.72832 0.664878V3.98714H2.18711L2.7226 0.774133C2.73701 0.688037 2.73431 0.599946 2.71466 0.514892C2.69501 0.429839 2.6588 0.349491 2.60808 0.278439C2.55737 0.207388 2.49315 0.147025 2.4191 0.100801C2.34505 0.0545771 2.26262 0.0233975 2.17651 0.00904391C2.09041 -0.00530965 2.00232 -0.0025558 1.91728 0.0171481C1.83224 0.036852 1.75191 0.0731199 1.68089 0.123879C1.60988 0.174638 1.54955 0.238894 1.50338 0.312974C1.4572 0.387055 1.42608 0.469508 1.41178 0.555623L0.747325 4.54234C0.746311 4.54855 0.746068 4.55467 0.745176 4.56083C0.743554 4.57276 0.742053 4.58472 0.741039 4.59685C0.740025 4.60893 0.739579 4.62093 0.739211 4.63294C0.739052 4.63919 0.738281 4.64531 0.738281 4.6516C0.738281 4.65752 0.738687 4.66332 0.738727 4.6692C0.738849 4.67329 0.738849 4.67735 0.739052 4.68141C0.747076 5.52974 1.0496 6.34894 1.59487 6.99887C2.14014 7.64881 2.89429 8.0891 3.72832 8.24444V16.6118C3.72832 16.788 3.79833 16.957 3.92293 17.0816C4.04754 17.2062 4.21655 17.2762 4.39277 17.2762C4.569 17.2762 4.738 17.2062 4.86261 17.0816C4.98722 16.957 5.05723 16.788 5.05723 16.6118V8.24444C5.89126 8.0891 6.6454 7.64881 7.19068 6.99887C7.73595 6.34894 8.03847 5.52974 8.0465 4.6814C8.0467 4.67735 8.0467 4.67329 8.04682 4.6692C8.04686 4.66332 8.04727 4.65752 8.04727 4.6516C8.04727 4.64531 8.04649 4.63919 8.04633 4.63294Z" fill="black"/>
<path d="M15.0224 0.65312C15.0222 0.639415 15.0214 0.625704 15.0203 0.611956C15.0196 0.602628 15.0188 0.593382 15.0176 0.584176C15.0162 0.572699 15.0144 0.561221 15.0124 0.549745C15.0104 0.538187 15.0081 0.52675 15.0055 0.515435C15.0034 0.506432 15.0011 0.49747 14.9986 0.488506C14.9949 0.475164 14.9909 0.462024 14.9864 0.449047C14.9852 0.445316 14.9844 0.441544 14.983 0.437813C14.9815 0.433798 14.9796 0.430067 14.9781 0.426093C14.9731 0.413074 14.9676 0.400286 14.9619 0.387728C14.9581 0.379533 14.9542 0.371449 14.9502 0.363475C14.9447 0.352769 14.9389 0.342239 14.9329 0.331883C14.9275 0.322597 14.9221 0.313471 14.9163 0.304508C14.9108 0.296073 14.9051 0.287881 14.8993 0.279689C14.8923 0.269793 14.8851 0.2601 14.8776 0.250692C14.8721 0.243757 14.8663 0.237066 14.8606 0.230374C14.8522 0.220803 14.8438 0.211354 14.835 0.20231C14.8288 0.195983 14.8224 0.1899 14.816 0.183817C14.8072 0.175382 14.7983 0.167109 14.789 0.1592C14.7815 0.152833 14.7738 0.146831 14.766 0.140788C14.7573 0.134056 14.7486 0.127364 14.7396 0.121038C14.7304 0.114589 14.7209 0.108547 14.7114 0.102585C14.7033 0.0975188 14.6953 0.0924058 14.6869 0.0877014C14.6761 0.081537 14.665 0.0758593 14.6538 0.0703037C14.6462 0.0664914 14.6386 0.062679 14.6307 0.0591507C14.619 0.0538783 14.607 0.0490934 14.5949 0.0444697C14.5868 0.0414281 14.5789 0.0383866 14.5707 0.0356291C14.5591 0.0316948 14.5473 0.0282479 14.5354 0.024963C14.5259 0.0223268 14.5164 0.0198533 14.5069 0.0176224C14.4963 0.0152295 14.4857 0.0131614 14.475 0.0112553C14.4633 0.00914646 14.4516 0.00736246 14.4398 0.00590233C14.4308 0.00480681 14.4217 0.00391472 14.4125 0.00314396C14.399 0.00204927 14.3853 0.00136002 14.3715 0.00107597C14.3672 0.000995403 14.3629 0.000427246 14.3586 0.000427246C14.3545 0.000427246 14.3506 0.000954689 14.3466 0.00103525C14.333 0.00127861 14.3194 0.00200868 14.3057 0.00310419C14.2964 0.00383426 14.2871 0.0046822 14.2778 0.0058209C14.2663 0.00724034 14.2549 0.0090252 14.2434 0.0110534C14.2319 0.0130809 14.2204 0.0153118 14.2091 0.0179472C14.2001 0.0200153 14.1912 0.0223675 14.1822 0.0248409C14.1688 0.0284904 14.1557 0.0325054 14.1427 0.0370071C14.139 0.0382645 14.1352 0.0390752 14.1315 0.0404124C14.1233 0.0434133 14.1152 0.0469821 14.1071 0.0500236C14.104 0.0512803 14.1008 0.0523759 14.0978 0.0536733C12.386 0.696998 11.0151 2.79698 10.0232 6.29772C9.57329 7.91313 9.24686 9.56041 9.04675 11.2253C9.03682 11.318 9.04651 11.4118 9.07518 11.5005C9.10386 11.5892 9.15087 11.6709 9.21318 11.7402C9.27549 11.8095 9.35169 11.865 9.43684 11.903C9.52198 11.9409 9.61416 11.9606 9.70739 11.9606H13.6941V16.6118C13.6941 16.788 13.7641 16.957 13.8887 17.0816C14.0133 17.2062 14.1823 17.2762 14.3586 17.2762C14.5348 17.2762 14.7038 17.2062 14.8284 17.0816C14.953 16.957 15.023 16.788 15.023 16.6118V0.66488C15.023 0.660906 15.0225 0.657094 15.0224 0.65312Z" fill="black"/>
</svg>
