<svg width="106" height="15" viewBox="0 0 106 15" fill="none" xmlns="http://www.w3.org/2000/svg">
<path d="M52.9084 0L55.4366 4.93691L61.0902 5.73344L56.9993 9.57413L57.9647 15L52.9084 12.4369L47.852 15L48.8175 9.57413L44.7266 5.73344L50.3802 4.93691L52.9084 0Z" fill="#F9D58E"/>
<path d="M30.5451 0L33.0733 4.93691L38.7269 5.73344L34.636 9.57413L35.6015 15L30.5451 12.4369L25.4887 15L26.4542 9.57413L22.3633 5.73344L28.0169 4.93691L30.5451 0Z" fill="#F9D58E"/>
<path d="M97.6349 0L100.163 4.93691L105.817 5.73344L101.726 9.57413L102.691 15L97.6349 12.4369L92.5786 15L93.544 9.57413L89.4531 5.73344L95.1068 4.93691L97.6349 0Z" fill="#F9D58E"/>
<path d="M75.2756 0L77.8038 4.93691L83.4574 5.73344L79.3665 9.57413L80.3319 15L75.2756 12.4369L70.2192 15L71.1847 9.57413L67.0938 5.73344L72.7474 4.93691L75.2756 0Z" fill="#F9D58E"/>
<path d="M8.18182 0L10.71 4.93691L16.3636 5.73344L12.2727 9.57413L13.2382 15L8.18182 12.4369L3.12545 15L4.09091 9.57413L0 5.73344L5.65364 4.93691L8.18182 0Z" fill="#F9D58E"/>
</svg>
