<svg width="13" height="14" viewBox="0 0 13 14" fill="none" xmlns="http://www.w3.org/2000/svg">
<path d="M8.45 8.76385C9.31195 8.76385 10.1386 9.10626 10.7481 9.71575C11.3576 10.3252 11.7 11.1519 11.7 12.0139V12.6639C11.7 13.0086 11.563 13.3393 11.3192 13.5831C11.0754 13.8269 10.7448 13.9639 10.4 13.9639H1.3C0.955218 13.9639 0.624558 13.8269 0.380761 13.5831C0.136964 13.3393 0 13.0086 0 12.6639V12.0139C0 11.1519 0.34241 10.3252 0.951903 9.71575C1.5614 9.10626 2.38805 8.76385 3.25 8.76385H8.45ZM11.05 4.86385C11.2224 4.86385 11.3877 4.93233 11.5096 5.05423C11.6315 5.17613 11.7 5.34146 11.7 5.51385V6.16385H12.35C12.5224 6.16385 12.6877 6.23233 12.8096 6.35423C12.9315 6.47613 13 6.64146 13 6.81385C13 6.98624 12.9315 7.15157 12.8096 7.27347C12.6877 7.39537 12.5224 7.46385 12.35 7.46385H11.7V8.11385C11.7 8.28624 11.6315 8.45157 11.5096 8.57347C11.3877 8.69537 11.2224 8.76385 11.05 8.76385C10.8776 8.76385 10.7123 8.69537 10.5904 8.57347C10.4685 8.45157 10.4 8.28624 10.4 8.11385V7.46385H9.75C9.57761 7.46385 9.41228 7.39537 9.29038 7.27347C9.16848 7.15157 9.1 6.98624 9.1 6.81385C9.1 6.64146 9.16848 6.47613 9.29038 6.35423C9.41228 6.23233 9.57761 6.16385 9.75 6.16385H10.4V5.51385C10.4 5.34146 10.4685 5.17613 10.5904 5.05423C10.7123 4.93233 10.8776 4.86385 11.05 4.86385ZM5.85 0.963852C6.71195 0.963852 7.5386 1.30626 8.1481 1.91575C8.75759 2.52525 9.1 3.3519 9.1 4.21385C9.1 5.07581 8.75759 5.90246 8.1481 6.51195C7.5386 7.12144 6.71195 7.46385 5.85 7.46385C4.98805 7.46385 4.1614 7.12144 3.5519 6.51195C2.94241 5.90246 2.6 5.07581 2.6 4.21385C2.6 3.3519 2.94241 2.52525 3.5519 1.91575C4.1614 1.30626 4.98805 0.963852 5.85 0.963852Z" fill="black"/>
</svg>
