<svg width="16" height="14" viewBox="0 0 16 14" fill="none" xmlns="http://www.w3.org/2000/svg">
<path d="M15.786 3.16171C15.6942 2.80254 15.5526 2.45801 15.3652 2.13815C15.1852 1.80542 14.955 1.50238 14.6828 1.2397C14.2881 0.846355 13.8208 0.533485 13.3067 0.318504C12.2719 -0.106168 11.1116 -0.106168 10.0768 0.318504C9.59092 0.524169 9.14452 0.812792 8.75756 1.17147L8.7007 1.2397L7.96147 1.97894L7.22223 1.2397L7.16537 1.17147C6.77841 0.812792 6.33201 0.524169 5.84612 0.318504C4.81138 -0.106168 3.65099 -0.106168 2.61624 0.318504C2.10217 0.533485 1.6348 0.846355 1.24013 1.2397C0.700338 1.76493 0.318221 2.43068 0.136971 3.16171C0.0405465 3.53294 -0.00535871 3.91548 0.00049708 4.29899C0.00049708 4.66065 0.0459883 5.02003 0.136971 5.36803C0.232313 5.72064 0.369777 6.06048 0.546392 6.38021C0.737132 6.7089 0.97039 7.01099 1.24013 7.27867L7.96147 14L14.6828 7.27867C14.9523 7.01482 15.1832 6.7123 15.3652 6.38021C15.7345 5.74914 15.9271 5.0302 15.9224 4.29899C15.9283 3.91548 15.8824 3.53293 15.786 3.16171Z" fill="white"/>
</svg>
