<svg width="21" height="93" viewBox="0 0 21 93" fill="none" xmlns="http://www.w3.org/2000/svg">
<path d="M1.61556 91.1112C1.66833 91.6609 2.15677 92.0638 2.70653 92.0111L11.6654 91.1512C12.2151 91.0984 12.618 90.61 12.5652 90.0602C12.5125 89.5105 12.024 89.1076 11.4743 89.1603L3.51087 89.9247L2.74655 81.9613C2.69379 81.4115 2.20534 81.0086 1.65558 81.0614C1.10583 81.1141 0.702934 81.6026 0.7557 82.1523L1.61556 91.1112ZM1.71512 1.68724C1.93223 1.92684 2.151 2.17342 2.37117 2.42686L3.88102 1.11524C3.65187 0.851457 3.42383 0.594437 3.19718 0.344306L1.71512 1.68724ZM4.89396 5.56399C5.28715 6.09008 5.68125 6.6353 6.07482 7.19905L7.71471 6.05417C7.30891 5.4729 6.90218 4.91019 6.49596 4.36667L4.89396 5.56399ZM8.28531 10.5802C8.63216 11.1467 8.97638 11.7272 9.31692 12.321L11.0519 11.3261C10.7018 10.7156 10.3478 10.1187 9.99102 9.53591L8.28531 10.5802ZM11.2286 15.8827C11.5269 16.4777 11.8203 17.0834 12.1081 17.6994L13.9201 16.8527C13.6244 16.2199 13.3229 15.5977 13.0165 14.9864L11.2286 15.8827ZM13.7188 21.4111C13.9678 22.0315 14.2103 22.6606 14.4457 23.2979L16.3218 22.6051C16.08 21.9501 15.8307 21.3037 15.5749 20.6661L13.7188 21.4111ZM15.737 27.1232C15.9333 27.7642 16.1218 28.4123 16.3019 29.0672L18.2303 28.5369C18.0451 27.8633 17.8512 27.1967 17.6493 26.5375L15.737 27.1232ZM17.2576 32.9866C17.3972 33.642 17.5278 34.3033 17.649 34.9701L19.6167 34.6125C19.4919 33.9258 19.3574 33.2449 19.2138 32.5701L17.2576 32.9866ZM18.2494 38.9586C18.3288 39.6237 18.3983 40.2936 18.4576 40.968L20.45 40.7929C20.3888 40.0976 20.3171 39.4071 20.2353 38.7216L18.2494 38.9586ZM18.6842 44.993C18.7007 45.6625 18.7066 46.3359 18.7015 47.013L20.7015 47.028C20.7067 46.3293 20.7006 45.6345 20.6836 44.9438L18.6842 44.993ZM18.5418 51.0387C18.4936 51.7072 18.4343 52.3789 18.3635 53.0535L20.3526 53.2622C20.4257 52.5659 20.4869 51.8726 20.5366 51.1825L18.5418 51.0387ZM17.8138 57.0424C17.7011 57.7015 17.577 58.363 17.4413 59.0267L19.4007 59.4275C19.5408 58.7425 19.6688 58.0598 19.7852 57.3795L17.8138 57.0424ZM16.5059 62.9532C16.3313 63.5945 16.1454 64.2376 15.9478 64.8823L17.8601 65.4681C18.0638 64.8033 18.2555 64.1401 18.4356 63.4786L16.5059 62.9532ZM14.6461 68.7032C14.4115 69.3278 14.1658 69.9537 13.9084 70.5808L15.7587 71.3401C16.0237 70.6943 16.2768 70.0497 16.5184 69.4062L14.6461 68.7032ZM12.2666 74.2678C11.9762 74.872 11.6747 75.4772 11.3618 76.0831L13.1389 77.0007C13.4605 76.3779 13.7705 75.7557 14.0692 75.1343L12.2666 74.2678ZM9.40821 79.6232C9.07154 80.196 8.7244 80.7692 8.3666 81.3429L10.0636 82.4013C10.4306 81.8128 10.7868 81.2246 11.1324 80.6368L9.40821 79.6232ZM6.13869 84.7203C5.75494 85.2716 5.36102 85.8231 4.95673 86.3748L6.56995 87.557C6.98374 86.9923 7.38707 86.4276 7.78012 85.863L6.13869 84.7203ZM2.4897 89.5821C2.27547 89.8478 2.05877 90.1136 1.83956 90.3793L3.38242 91.652C3.60638 91.3804 3.82782 91.1089 4.04677 90.8373L2.4897 89.5821Z" fill="#5F5F5F"/>
</svg>
