<svg width="17" height="17" viewBox="0 0 17 17" fill="none" xmlns="http://www.w3.org/2000/svg">
<path d="M11.4535 2.2389C10.8575 2.23787 10.2696 2.37594 9.73631 2.64211C9.20307 2.90828 8.7393 3.29521 8.38189 3.77212C7.89783 3.12807 7.22348 2.65254 6.45429 2.41283C5.68509 2.17312 4.85999 2.18137 4.09574 2.43641C3.33148 2.69144 2.66678 3.18036 2.19569 3.83396C1.7246 4.48756 1.47098 5.27276 1.4707 6.07844C1.4707 10.6771 7.85976 14.3079 8.13173 14.4602C8.20816 14.503 8.29429 14.5254 8.38189 14.5254C8.46949 14.5254 8.55562 14.503 8.63205 14.4602C9.80711 13.772 10.91 12.9673 11.924 12.0583C14.1595 10.0463 15.2931 8.03437 15.2931 6.07844C15.2919 5.06049 14.887 4.08455 14.1672 3.36475C13.4474 2.64494 12.4715 2.24005 11.4535 2.2389Z" fill="#DBE2E5"/>
</svg>
