<svg width="19" height="22" viewBox="0 0 19 22" fill="none" xmlns="http://www.w3.org/2000/svg">
<path d="M17.3636 9.18182C17.3636 15.5455 9.18182 21 9.18182 21C9.18182 21 1 15.5455 1 9.18182C1 7.01187 1.86201 4.93079 3.3964 3.3964C4.93079 1.86201 7.01186 1 9.18182 1C11.3518 1 13.4328 1.86201 14.9672 3.3964C16.5016 4.93079 17.3636 7.01187 17.3636 9.18182Z" stroke="#C4C4C4" stroke-width="2" stroke-linecap="round" stroke-linejoin="round"/>
<path d="M9.18235 11.9091C10.6886 11.9091 11.9096 10.688 11.9096 9.18182C11.9096 7.67559 10.6886 6.45454 9.18235 6.45454C7.67612 6.45454 6.45508 7.67559 6.45508 9.18182C6.45508 10.688 7.67612 11.9091 9.18235 11.9091Z" stroke="#C4C4C4" stroke-width="2" stroke-linecap="round" stroke-linejoin="round"/>
</svg>
