<svg width="17" height="20" viewBox="0 0 17 20" fill="none" xmlns="http://www.w3.org/2000/svg">
<path d="M15.7273 8.36364C15.7273 14.0909 8.36364 19 8.36364 19C8.36364 19 1 14.0909 1 8.36364C1 6.41068 1.77581 4.53771 3.15676 3.15676C4.53771 1.77581 6.41068 1 8.36364 1C10.3166 1 12.1896 1.77581 13.5705 3.15676C14.9515 4.53771 15.7273 6.41068 15.7273 8.36364Z" stroke="#B4B4B4" stroke-width="2" stroke-linecap="round" stroke-linejoin="round"/>
<path d="M8.36275 10.8173C9.71836 10.8173 10.8173 9.71836 10.8173 8.36275C10.8173 7.00714 9.71836 5.9082 8.36275 5.9082C7.00714 5.9082 5.9082 7.00714 5.9082 8.36275C5.9082 9.71836 7.00714 10.8173 8.36275 10.8173Z" stroke="#B4B4B4" stroke-width="2" stroke-linecap="round" stroke-linejoin="round"/>
</svg>
