<svg width="94" height="94" viewBox="0 0 94 94" fill="none" xmlns="http://www.w3.org/2000/svg">
<path fill-rule="evenodd" clip-rule="evenodd" d="M47 0C72.9574 0 94 21.0426 94 47C94 72.9574 72.9574 94 47 94C21.0426 94 0 72.9574 0 47C0 21.0426 21.0426 0 47 0ZM50.2437 69.1669H59.6353C63.2238 69.1669 66.143 66.2482 66.143 62.6596V55.4534C66.143 54.2736 65.1861 53.3165 64.0063 53.3165C62.8261 53.3165 61.87 54.2733 61.87 55.4534V62.6596C61.87 63.8919 60.8672 64.8938 59.6351 64.8938H50.2435V36.3415C50.2435 33.9573 49.0544 31.8992 46.9899 30.7072L34.1187 23.2747H59.6351C60.8672 23.2747 61.87 24.2773 61.87 25.5094V33.73C61.87 34.9094 62.8265 35.8669 64.0063 35.8669C65.1855 35.8669 66.143 34.9094 66.143 33.73V25.5094C66.143 21.9209 63.2236 19.0021 59.6353 19.0021H30.5155C26.9271 19.0021 24.0084 21.9211 24.0084 25.5094V64.507C24.0084 66.8918 25.1966 68.9501 27.262 70.1424L40.4839 77.776C41.4784 78.3501 42.5868 78.6708 43.7377 78.6701C44.8876 78.6696 45.9965 78.3496 46.9901 77.776C49.0553 76.5839 50.2437 74.5251 50.2437 72.1406V69.1669ZM70.0417 46.2206L67.6886 48.5736C66.8544 49.4078 66.8546 50.7604 67.6886 51.595C68.0903 51.9967 68.6314 52.2199 69.1994 52.2199C69.768 52.2199 70.3085 51.9972 70.7108 51.595L76.7101 45.5946C77.5441 44.7603 77.5441 43.4087 76.7101 42.5745L70.7108 36.575C69.8763 35.7406 68.5236 35.7409 67.689 36.575C66.8549 37.4085 66.8551 38.7616 67.689 39.5953L70.0419 41.9477H54.2789C53.0984 41.9477 52.1426 42.9042 52.1426 44.0845C52.1426 45.2649 53.0986 46.2208 54.2789 46.2208H70.0417V46.2206Z" fill="white"/>
</svg>
