<svg width="13" height="10" viewBox="0 0 13 10" fill="none" xmlns="http://www.w3.org/2000/svg">
<path d="M11.9976 0.884073C11.6799 0.603796 11.3028 0.38146 10.8877 0.229768C10.4726 0.0780762 10.0276 0 9.57832 0C9.129 0 8.68407 0.0780762 8.26897 0.229768C7.85386 0.38146 7.47671 0.603796 7.15907 0.884073L6.49983 1.46547L5.8406 0.884073C5.19898 0.318198 4.32874 0.000293312 3.42135 0.000293318C2.51395 0.000293324 1.64372 0.318198 1.00209 0.884073C0.360462 1.44995 6.76064e-09 2.21744 0 3.0177C-6.76064e-09 3.81797 0.360462 4.58546 1.00209 5.15134L1.66132 5.73274L6.49983 10L11.3383 5.73274L11.9976 5.15134C12.3154 4.87119 12.5675 4.53857 12.7395 4.17247C12.9115 3.80638 13 3.41398 13 3.0177C13 2.62143 12.9115 2.22903 12.7395 1.86293C12.5675 1.49684 12.3154 1.16422 11.9976 0.884073Z" fill="#C4C4C4"/>
</svg>
