<svg width="13" height="13" viewBox="0 0 13 13" fill="none" xmlns="http://www.w3.org/2000/svg">
<path d="M13 6.1389C13.0025 7.09214 12.7798 8.03248 12.35 8.88334C11.8404 9.90293 11.057 10.7605 10.0876 11.36C9.11815 11.9596 8.00094 12.2773 6.8611 12.2778C5.90786 12.2803 4.96752 12.0576 4.11666 11.6278L0 13L1.37222 8.88334C0.942449 8.03248 0.719736 7.09214 0.722221 6.1389C0.722662 4.99906 1.04044 3.88185 1.63996 2.91241C2.23948 1.94298 3.09707 1.1596 4.11666 0.65002C4.96752 0.220248 5.90786 -0.00246477 6.8611 2.05747e-05H7.22221C8.72757 0.0830701 10.1494 0.718458 11.2155 1.78453C12.2815 2.8506 12.9169 4.27243 13 5.77779V6.1389Z" fill="#C4C4C4"/>
</svg>
