<svg width="66" height="48" viewBox="0 0 66 48" fill="none" xmlns="http://www.w3.org/2000/svg">
<path d="M44.375 0C45.1596 0 45.9121 0.311681 46.4669 0.866476C47.0217 1.42127 47.3333 2.17373 47.3333 2.95833V15.3833L62.7551 4.58542C62.9769 4.42997 63.237 4.33839 63.5073 4.32065C63.7775 4.30291 64.0474 4.3597 64.2876 4.48482C64.5278 4.60994 64.729 4.79859 64.8693 5.03021C65.0096 5.26183 65.0836 5.52753 65.0833 5.79833V41.535C65.0836 41.8058 65.0096 42.0715 64.8693 42.3031C64.729 42.5347 64.5278 42.7234 64.2876 42.8485C64.0474 42.9736 63.7775 43.0304 63.5073 43.0127C63.237 42.9949 62.9769 42.9034 62.7551 42.7479L47.3333 31.95V44.375C47.3333 45.1596 47.0217 45.9121 46.4669 46.4669C45.9121 47.0217 45.1596 47.3333 44.375 47.3333H2.95833C2.17373 47.3333 1.42127 47.0217 0.866476 46.4669C0.311681 45.9121 0 45.1596 0 44.375V2.95833C0 2.17373 0.311681 1.42127 0.866476 0.866476C1.42127 0.311681 2.17373 0 2.95833 0H44.375ZM41.4167 5.91667H5.91667V41.4167H41.4167V5.91667ZM23.6667 11.8333L35.5 23.6667H26.625V35.5H20.7083V23.6667H11.8333L23.6667 11.8333ZM59.1667 14.3213L47.3333 22.6046V24.7287L59.1667 33.012V14.3183V14.3213Z" fill="#B7B7B7"/>
</svg>
