<svg width="17" height="19" viewBox="0 0 17 19" fill="none" xmlns="http://www.w3.org/2000/svg">
<path d="M6.90078 1.32891H10.8875C11.0637 1.32891 11.2327 1.2589 11.3573 1.13429C11.4819 1.00968 11.552 0.840677 11.552 0.664453C11.552 0.488229 11.4819 0.319223 11.3573 0.194614C11.2327 0.0700047 11.0637 0 10.8875 0L6.90078 0C6.72456 0 6.55555 0.0700047 6.43094 0.194614C6.30633 0.319223 6.23633 0.488229 6.23633 0.664453C6.23633 0.840677 6.30633 1.00968 6.43094 1.13429C6.55555 1.2589 6.72456 1.32891 6.90078 1.32891Z" fill="black"/>
<path d="M8.89336 2.65771C7.31637 2.65771 5.77478 3.12535 4.46356 4.00148C3.15233 4.87761 2.13036 6.12289 1.52687 7.57985C0.923377 9.03681 0.765476 10.64 1.07313 12.1867C1.38079 13.7334 2.14019 15.1541 3.25529 16.2692C4.3704 17.3843 5.79113 18.1437 7.33782 18.4514C8.88452 18.759 10.4877 18.6011 11.9447 17.9976C13.4016 17.3942 14.6469 16.3722 15.523 15.061C16.3992 13.7497 16.8668 12.2081 16.8668 10.6312C16.8644 8.5172 16.0236 6.49051 14.5288 4.99572C13.034 3.50093 11.0073 2.66011 8.89336 2.65771ZM12.6521 7.81209L9.36323 11.101C9.30153 11.1627 9.22829 11.2116 9.14767 11.245C9.06705 11.2784 8.98065 11.2956 8.89339 11.2956C8.80613 11.2956 8.71973 11.2784 8.63911 11.2451C8.55849 11.2117 8.48524 11.1627 8.42353 11.101C8.36183 11.0393 8.31288 10.9661 8.27948 10.8855C8.24609 10.8048 8.2289 10.7184 8.22889 10.6312C8.22889 10.5439 8.24607 10.4575 8.27946 10.3769C8.31285 10.2963 8.36179 10.223 8.42349 10.1613L11.7124 6.87243C11.7741 6.81073 11.8473 6.76179 11.9279 6.72839C12.0086 6.695 12.095 6.67781 12.1822 6.67781C12.2695 6.67781 12.3559 6.69499 12.4365 6.72838C12.5171 6.76177 12.5904 6.81071 12.6521 6.87241C12.7138 6.93411 12.7627 7.00736 12.7961 7.08797C12.8295 7.16859 12.8467 7.25499 12.8467 7.34225C12.8467 7.42951 12.8295 7.51591 12.7961 7.59653C12.7627 7.67714 12.7138 7.75039 12.6521 7.81209H12.6521Z" fill="black"/>
</svg>
