<svg width="15" height="18" viewBox="0 0 15 18" fill="none" xmlns="http://www.w3.org/2000/svg">
<path d="M7.30805 4.63294C7.30769 4.62094 7.30724 4.60893 7.30622 4.59685C7.30521 4.58472 7.30371 4.57276 7.30209 4.56083C7.3012 4.55467 7.30095 4.54855 7.29994 4.54234L6.63549 0.555623C6.62119 0.469508 6.59006 0.387055 6.54388 0.312974C6.49771 0.238894 6.43739 0.174638 6.36637 0.123879C6.29535 0.0731199 6.21503 0.036852 6.12999 0.0171481C6.04494 -0.0025558 5.95685 -0.00530965 5.87075 0.00904391C5.78464 0.0233975 5.70221 0.0545771 5.62816 0.100801C5.55411 0.147025 5.48989 0.207388 5.43918 0.278439C5.38847 0.349491 5.35225 0.429839 5.3326 0.514892C5.31295 0.599946 5.31026 0.688037 5.32467 0.774133L5.86016 3.98714H4.31895V0.664878C4.31895 0.488654 4.24894 0.319648 4.12433 0.195039C3.99972 0.0704295 3.83072 0.00042486 3.65449 0.00042486C3.47827 0.00042486 3.30926 0.0704295 3.18465 0.195039C3.06004 0.319648 2.99004 0.488654 2.99004 0.664878V3.98714H1.44883L1.98432 0.774133C1.99872 0.688037 1.99603 0.599946 1.97638 0.514892C1.95673 0.429839 1.92051 0.349491 1.8698 0.278439C1.81909 0.207388 1.75487 0.147025 1.68082 0.100801C1.60677 0.0545771 1.52434 0.0233975 1.43823 0.00904391C1.35213 -0.00530965 1.26404 -0.0025558 1.179 0.0171481C1.09396 0.036852 1.01363 0.0731199 0.942613 0.123879C0.871594 0.174638 0.811273 0.238894 0.765097 0.312974C0.718921 0.387055 0.687795 0.469508 0.673497 0.555623L0.00904408 4.54234C0.00802996 4.54855 0.0077867 4.55467 0.00689467 4.56083C0.00527257 4.57276 0.00377154 4.58472 0.00275742 4.59685C0.00174413 4.60893 0.00129734 4.62093 0.00093023 4.63294C0.000770762 4.63919 0 4.64531 0 4.6516C0 4.65752 0.000405407 4.66332 0.000446105 4.6692C0.000568198 4.67329 0.000568204 4.67735 0.000770862 4.68141C0.00879458 5.52974 0.311315 6.34894 0.856588 6.99887C1.40186 7.64881 2.15601 8.0891 2.99004 8.24444V16.6118C2.99004 16.788 3.06004 16.957 3.18465 17.0816C3.30926 17.2062 3.47827 17.2762 3.65449 17.2762C3.83072 17.2762 3.99972 17.2062 4.12433 17.0816C4.24894 16.957 4.31895 16.788 4.31895 16.6118V8.24444C5.15298 8.0891 5.90712 7.64881 6.4524 6.99887C6.99767 6.34894 7.30019 5.52974 7.30821 4.6814C7.30842 4.67735 7.30842 4.67329 7.30854 4.6692C7.30858 4.66332 7.30898 4.65752 7.30898 4.6516C7.30898 4.64531 7.30821 4.63919 7.30805 4.63294Z" fill="black"/>
<path d="M14.2841 0.653181C14.2839 0.639476 14.2832 0.625765 14.2821 0.612017C14.2813 0.60269 14.2805 0.593443 14.2793 0.584237C14.2779 0.57276 14.2761 0.561282 14.2741 0.549806C14.2721 0.538248 14.2698 0.526811 14.2673 0.515496C14.2651 0.506493 14.2628 0.497531 14.2603 0.488567C14.2566 0.475225 14.2527 0.462085 14.2482 0.449108C14.2469 0.445377 14.2461 0.441605 14.2447 0.437874C14.2432 0.433859 14.2413 0.430128 14.2398 0.426154C14.2348 0.413135 14.2294 0.400347 14.2236 0.387789C14.2198 0.379594 14.216 0.37151 14.2119 0.363536C14.2064 0.35283 14.2007 0.3423 14.1946 0.331944C14.1893 0.322658 14.1838 0.313532 14.178 0.304569C14.1726 0.296134 14.1668 0.287942 14.161 0.27975C14.154 0.269854 14.1468 0.260162 14.1393 0.250753C14.1338 0.243818 14.128 0.237127 14.1223 0.230435C14.114 0.220864 14.1055 0.211415 14.0967 0.202371C14.0906 0.196044 14.0841 0.189961 14.0777 0.183878C14.0689 0.175443 14.06 0.16717 14.0507 0.159261C14.0432 0.152894 14.0355 0.146892 14.0277 0.140849C14.0191 0.134117 14.0103 0.127425 14.0013 0.121099C13.9921 0.11465 13.9826 0.108608 13.9731 0.102646C13.965 0.0975799 13.957 0.0924668 13.9487 0.0877625C13.9378 0.081598 13.9268 0.0759204 13.9156 0.0703647C13.9079 0.0665524 13.9003 0.06274 13.8924 0.0592118C13.8807 0.0539393 13.8687 0.0491545 13.8566 0.0445307C13.8486 0.0414892 13.8406 0.0384477 13.8324 0.0356902C13.8208 0.0317558 13.809 0.0283089 13.7971 0.0250241C13.7876 0.0223878 13.7782 0.0199143 13.7686 0.0176834C13.758 0.0152906 13.7474 0.0132225 13.7367 0.0113163C13.725 0.0092075 13.7134 0.0074235 13.7016 0.00596336C13.6925 0.00486785 13.6834 0.00397576 13.6743 0.00320499C13.6607 0.0021103 13.647 0.00142106 13.6333 0.001137C13.6289 0.00105644 13.6247 0.000488281 13.6203 0.000488281C13.6163 0.000488281 13.6123 0.00101572 13.6084 0.00109629C13.5947 0.00133965 13.5811 0.00206971 13.5674 0.00316523C13.5581 0.0038953 13.5488 0.00474323 13.5395 0.00588194C13.5281 0.00730138 13.5166 0.00908624 13.5051 0.0111145C13.4936 0.0131419 13.4821 0.0153728 13.4708 0.0180082C13.4618 0.0200763 13.4529 0.0224285 13.4439 0.0249019C13.4306 0.0285514 13.4174 0.0325664 13.4044 0.0370681C13.4007 0.0383256 13.3969 0.0391362 13.3932 0.0404734C13.385 0.0434743 13.3769 0.0470431 13.3688 0.0500847C13.3657 0.0513413 13.3626 0.052437 13.3595 0.0537343C11.6477 0.697059 10.2768 2.79704 9.28495 6.29779C8.83501 7.91319 8.50858 9.56047 8.30847 11.2254C8.29854 11.3181 8.30823 11.4118 8.3369 11.5005C8.36557 11.5892 8.41259 11.6709 8.4749 11.7403C8.53721 11.8096 8.61341 11.8651 8.69856 11.903C8.7837 11.941 8.87588 11.9606 8.96911 11.9606H12.9558V16.6118C12.9558 16.788 13.0258 16.957 13.1504 17.0817C13.275 17.2063 13.4441 17.2763 13.6203 17.2763C13.7965 17.2763 13.9655 17.2063 14.0901 17.0817C14.2147 16.957 14.2847 16.788 14.2847 16.6118V0.664941C14.2847 0.660967 14.2842 0.657155 14.2841 0.653181Z" fill="black"/>
</svg>
