<svg width="21" height="93" viewBox="0 0 21 93" fill="none" xmlns="http://www.w3.org/2000/svg">
<path d="M19.6079 91.0996C19.5615 91.6499 19.0778 92.0585 18.5275 92.0121L9.55924 91.2564C9.0089 91.21 8.60036 90.7263 8.64674 90.1759C8.69312 89.6256 9.17684 89.2171 9.72718 89.2634L17.6989 89.9352L18.3707 81.9635C18.4171 81.4131 18.9008 81.0046 19.4511 81.051C20.0015 81.0973 20.41 81.5811 20.3636 82.1314L19.6079 91.0996ZM19.1944 1.69082C18.9754 1.9301 18.7548 2.17631 18.5329 2.42932L17.0294 1.11033C17.2604 0.847049 17.4903 0.590474 17.7188 0.340732L19.1944 1.69082ZM15.9879 5.5624C15.591 6.08813 15.1932 6.6329 14.796 7.19609L13.1616 6.04337C13.5711 5.46266 13.9817 4.90041 14.3918 4.35727L15.9879 5.5624ZM12.5638 10.576C12.2134 11.1426 11.8657 11.723 11.5217 12.3169L9.79106 11.3145C10.1447 10.7039 10.5023 10.1069 10.8628 9.52402L12.5638 10.576ZM9.59096 15.8792C9.28951 16.4747 8.993 17.0809 8.70225 17.6974L6.89333 16.8443C7.19209 16.2108 7.49677 15.5879 7.80654 14.976L9.59096 15.8792ZM7.07522 21.4136C6.8238 22.0348 6.57901 22.6645 6.34152 23.3025L4.46716 22.6048C4.7113 21.9489 4.96293 21.3016 5.22133 20.6632L7.07522 21.4136ZM5.03832 27.135C4.84032 27.7773 4.65031 28.4268 4.46891 29.083L2.54121 28.5501C2.72789 27.8748 2.92338 27.2066 3.12706 26.5459L5.03832 27.135ZM3.50739 33.0109C3.36724 33.668 3.23619 34.3308 3.1148 34.9992L1.14699 34.6419C1.27206 33.9532 1.40705 33.2704 1.55139 32.5937L3.50739 33.0109ZM2.5156 38.9977C2.43683 39.6645 2.36811 40.3361 2.3099 41.0122L0.317273 40.8407C0.377307 40.1433 0.448189 39.4507 0.529403 38.7631L2.5156 38.9977ZM2.09253 45.0473C2.07806 45.7184 2.07437 46.3935 2.08191 47.0722L0.0820346 47.0944C0.0742503 46.3937 0.0780594 45.6969 0.0929933 45.0042L2.09253 45.0473ZM2.25927 51.1066C2.31086 51.7765 2.37378 52.4494 2.44845 53.1252L0.460548 53.3448C0.383433 52.6469 0.318451 51.9519 0.265178 51.2602L2.25927 51.1066ZM3.02396 57.1201C3.14138 57.7801 3.27038 58.4424 3.41136 59.107L1.45489 59.522C1.30934 58.8359 1.17613 58.1519 1.05488 57.4705L3.02396 57.1201ZM4.37961 63.0349C4.55999 63.6763 4.7519 64.3195 4.95566 64.9643L3.04861 65.5669C2.83843 64.9018 2.64043 64.2382 2.4543 63.5764L4.37961 63.0349ZM6.29611 68.7826C6.53713 69.4061 6.78961 70.0309 7.05385 70.6569L5.21126 71.4347C4.93911 70.7899 4.67899 70.1462 4.43062 69.5036L6.29611 68.7826ZM8.73793 74.3361C9.03562 74.9389 9.34458 75.5426 9.66506 76.147L7.89805 77.0839C7.56861 76.4625 7.2509 75.8417 6.94468 75.2217L8.73793 74.3361ZM11.663 79.6744C12.0067 80.2444 12.3611 80.8149 12.7263 81.3858L11.0414 82.4635C10.6668 81.8778 10.3032 81.2924 9.95033 80.7073L11.663 79.6744ZM14.9988 84.7463C15.39 85.2945 15.7914 85.8431 16.2034 86.3917L14.604 87.5926C14.1824 87.031 13.7713 86.4694 13.3707 85.9078L14.9988 84.7463ZM18.714 89.5783C18.932 89.8424 19.1524 90.1064 19.3754 90.3704L17.8474 91.6609C17.6196 91.3912 17.3944 91.1214 17.1717 90.8516L18.714 89.5783Z" fill="#5F5F5F"/>
</svg>
