<svg width="13" height="14" viewBox="0 0 13 14" fill="none" xmlns="http://www.w3.org/2000/svg">
<path d="M11.9929 11.5023C11.9929 12.1647 11.7298 12.8 11.2614 13.2684C10.793 13.7368 10.1577 14 9.49523 14C8.8328 14 8.1975 13.7368 7.72909 13.2684C7.26068 12.8 6.99753 12.1647 6.99753 11.5023C6.99853 11.1928 7.05566 10.886 7.16612 10.5969L4.28752 8.74858C3.94095 9.10463 3.49607 9.34922 3.00975 9.45108C2.52343 9.55295 2.01779 9.50745 1.55747 9.3204C1.09715 9.13336 0.703071 8.81328 0.425632 8.40108C0.148194 7.98888 0 7.5033 0 7.00643C0 6.50956 0.148194 6.02398 0.425632 5.61178C0.703071 5.19958 1.09715 4.8795 1.55747 4.69245C2.01779 4.50541 2.52343 4.45991 3.00975 4.56178C3.49607 4.66364 3.94095 4.90823 4.28752 5.26428L7.16612 3.41598C7.05566 3.12685 6.99853 2.82008 6.99753 2.51056C6.996 1.92966 7.19648 1.3663 7.56465 0.916975C7.93282 0.467645 8.44576 0.160304 9.01562 0.0475908C9.58548 -0.0651222 10.1768 0.0238067 10.6883 0.299146C11.1998 0.574485 11.5997 1.0191 11.8194 1.55685C12.0391 2.09459 12.065 2.692 11.8927 3.24675C11.7204 3.8015 11.3605 4.27908 10.8748 4.59768C10.3891 4.91629 9.80767 5.0561 9.23019 4.99316C8.65271 4.93023 8.11508 4.66847 7.70937 4.25271L4.83077 6.10101C5.05548 6.68371 5.05548 7.32915 4.83077 7.91185L7.70937 9.76015C8.05617 9.40548 8.50072 9.1621 8.98635 9.06104C9.47199 8.95997 9.97673 9.0058 10.4362 9.19268C10.8957 9.37956 11.2892 9.69902 11.5664 10.1104C11.8436 10.5217 11.9921 11.0063 11.9929 11.5023Z" fill="white"/>
</svg>
