<svg width="14" height="11" viewBox="0 0 14 11" fill="none" xmlns="http://www.w3.org/2000/svg">
<path d="M1.11449 11C1.08223 11 1.04965 10.9963 1.01739 10.9889C0.826474 10.9434 0.691406 10.7731 0.691406 10.5769C0.691406 6.7324 1.17774 3.53498 7.03759 3.38955V0.423024C7.03759 0.25485 7.13712 0.102859 7.29091 0.0354839C7.44417 -0.0314684 7.62388 -0.00248754 7.74784 0.112378L13.2479 5.18933C13.3346 5.26897 13.3838 5.38183 13.3838 5.49997C13.3838 5.61812 13.3346 5.73098 13.2479 5.81073L7.74784 10.8877C7.6243 11.0025 7.4446 11.0323 7.29091 10.9646C7.13712 10.8971 7.03759 10.7451 7.03759 10.5769V7.62034C3.01792 7.71659 2.27626 9.19948 1.49293 10.7661C1.42027 10.912 1.27187 11 1.11449 11Z" fill="#C4C4C4"/>
</svg>
