<svg width="8" height="11" viewBox="0 0 8 11" fill="none" xmlns="http://www.w3.org/2000/svg">
<path d="M8 6.05V9.9C8 10.1917 7.89464 10.4715 7.70711 10.6778C7.51957 10.8841 7.26522 11 7 11C6.73478 11 6.48043 10.8841 6.29289 10.6778C6.10536 10.4715 6 10.1917 6 9.9V7.15H5V1.65C5 1.21239 5.15804 0.792709 5.43934 0.483274C5.72064 0.173839 6.10218 0 6.5 0L8 0V6.05ZM1 5.5C0.734784 5.5 0.48043 5.38411 0.292893 5.17782C0.105357 4.97153 0 4.69174 0 4.4V0.55C0 0.404131 0.0526784 0.264236 0.146447 0.161091C0.240215 0.0579463 0.367392 0 0.5 0C0.632608 0 0.759785 0.0579463 0.853553 0.161091C0.947322 0.264236 1 0.404131 1 0.55V2.75H1.5V0.55C1.5 0.404131 1.55268 0.264236 1.64645 0.161091C1.74021 0.0579463 1.86739 0 2 0C2.13261 0 2.25979 0.0579463 2.35355 0.161091C2.44732 0.264236 2.5 0.404131 2.5 0.55V2.75H3V0.55C3 0.404131 3.05268 0.264236 3.14645 0.161091C3.24021 0.0579463 3.36739 0 3.5 0C3.63261 0 3.75979 0.0579463 3.85355 0.161091C3.94732 0.264236 4 0.404131 4 0.55V4.4C4 4.69174 3.89464 4.97153 3.70711 5.17782C3.51957 5.38411 3.26522 5.5 3 5.5V9.9C3 10.1917 2.89464 10.4715 2.70711 10.6778C2.51957 10.8841 2.26522 11 2 11C1.73478 11 1.48043 10.8841 1.29289 10.6778C1.10536 10.4715 1 10.1917 1 9.9V5.5Z" fill="black"/>
</svg>
