<svg width="86" height="15" viewBox="0 0 86 15" fill="none" xmlns="http://www.w3.org/2000/svg">
<path d="M8.18182 0L10.71 4.93691L16.3636 5.73344L12.2727 9.57413L13.2382 15L8.18182 12.4369L3.12545 15L4.09091 9.57413L0 5.73344L5.65364 4.93691L8.18182 0Z" fill="#F9D58E"/>
<path d="M25.5451 0L28.0733 4.93691L33.7269 5.73344L29.636 9.57413L30.6015 15L25.5451 12.4369L20.4887 15L21.4542 9.57413L17.3633 5.73344L23.0169 4.93691L25.5451 0Z" fill="#F9D58E"/>
<path d="M42.9084 0L45.4366 4.93691L51.0902 5.73344L46.9993 9.57413L47.9647 15L42.9084 12.4369L37.852 15L38.8175 9.57413L34.7266 5.73344L40.3802 4.93691L42.9084 0Z" fill="#F9D58E"/>
<path d="M60.2736 0L62.8018 4.93691L68.4554 5.73344L64.3645 9.57413L65.33 15L60.2736 12.4369L55.2173 15L56.1827 9.57413L52.0918 5.73344L57.7454 4.93691L60.2736 0Z" fill="#F9D58E"/>
<path d="M77.6369 1.09695L79.72 5.16481C79.7942 5.30964 79.9342 5.40932 80.0953 5.43202L84.7159 6.083L81.3856 9.20961C81.2624 9.32527 81.2059 9.49535 81.2355 9.66173L82.0254 14.1009L77.863 11.9909C77.7209 11.9189 77.5529 11.9189 77.4108 11.9909L73.2484 14.1009L74.0383 9.66173C74.0679 9.49535 74.0114 9.32527 73.8882 9.20961L70.5579 6.083L75.1785 5.43202C75.3396 5.40932 75.4796 5.30964 75.5538 5.16481L77.6369 1.09695Z" stroke="#C4C4C4" stroke-linecap="round" stroke-linejoin="round"/>
</svg>
