<svg width="86" height="15" viewBox="0 0 86 15" fill="none" xmlns="http://www.w3.org/2000/svg">
<path d="M8.18182 0L10.71 4.93691L16.3636 5.73344L12.2727 9.57413L13.2382 15L8.18182 12.4369L3.12545 15L4.09091 9.57413L0 5.73344L5.65364 4.93691L8.18182 0Z" fill="#F9D58E"/>
<path d="M25.5451 0L28.0733 4.93691L33.7269 5.73344L29.636 9.57413L30.6015 15L25.5451 12.4369L20.4887 15L21.4542 9.57413L17.3633 5.73344L23.0169 4.93691L25.5451 0Z" fill="#F9D58E"/>
<path d="M42.9084 0L45.4366 4.93691L51.0902 5.73344L46.9993 9.57413L47.9647 15L42.9084 12.4369L37.852 15L38.8175 9.57413L34.7266 5.73344L40.3802 4.93691L42.9084 0Z" fill="#F9D58E"/>
<path d="M60.2736 0L62.8018 4.93691L68.4554 5.73344L64.3645 9.57413L65.33 15L60.2736 12.4369L55.2173 15L56.1827 9.57413L52.0918 5.73344L57.7454 4.93691L60.2736 0Z" fill="#F9D58E"/>
<path d="M77.6369 0L80.1651 4.93691L85.8187 5.73344L81.7278 9.57413L82.6933 15L77.6369 12.4369L72.5805 15L73.546 9.57413L69.4551 5.73344L75.1087 4.93691L77.6369 0Z" fill="#F9D58E"/>
</svg>
