<svg width="101" height="16" viewBox="0 0 101 16" fill="none" xmlns="http://www.w3.org/2000/svg">
<path d="M16.8978 6.03557C16.7574 5.75486 16.4767 5.6145 16.196 5.6145H10.8625L9.17819 0.561693C9.03784 0.00026916 8.05535 0.00026916 7.77463 0.561693L6.09036 5.6145H0.756841C0.47613 5.6145 0.195418 5.75486 0.0550621 6.03557C-0.0852938 6.31628 0.0550631 6.59699 0.335775 6.87771L4.68681 9.96554L3.00254 15.0183C2.86218 15.2991 3.00254 15.5798 3.28325 15.8605C3.56396 16.0008 3.84467 16.0008 4.12538 15.8605L8.47641 12.7727L12.8274 15.8605C12.9678 16.0008 13.1082 16.0008 13.2485 16.0008C13.3889 16.0008 13.5292 16.0008 13.6696 15.8605C13.9503 15.7201 14.0906 15.4394 13.9503 15.0183L12.266 9.96554L16.6171 6.87771C16.8978 6.59699 17.0381 6.31628 16.8978 6.03557Z" fill="#F9D58E"/>
<path d="M37.8509 6.03557C37.7105 5.75486 37.4298 5.6145 37.1491 5.6145H31.8156L30.1313 0.561693C29.991 0.00026916 29.0085 0.00026916 28.7278 0.561693L27.0435 5.6145H21.71C21.4293 5.6145 21.1485 5.75486 21.0082 6.03557C20.8678 6.31628 21.0082 6.59699 21.2889 6.87771L25.6399 9.96554L23.9557 15.0183C23.8153 15.2991 23.9557 15.5798 24.2364 15.8605C24.5171 16.0008 24.7978 16.0008 25.0785 15.8605L29.4295 12.7727L33.7806 15.8605C33.9209 16.0008 34.0613 16.0008 34.2016 16.0008C34.342 16.0008 34.4823 16.0008 34.6227 15.8605C34.9034 15.7201 35.0438 15.4394 34.9034 15.0183L33.2191 9.96554L37.5702 6.87771C37.8509 6.59699 37.9912 6.31628 37.8509 6.03557Z" fill="#F9D58E"/>
<path d="M58.804 6.03557C58.6637 5.75486 58.3829 5.6145 58.1022 5.6145H52.7687L51.0844 0.561693C50.9441 0.00026916 49.9616 0.00026916 49.6809 0.561693L47.9966 5.6145H42.6631C42.3824 5.6145 42.1017 5.75486 41.9613 6.03557C41.821 6.31628 41.9613 6.59699 42.242 6.87771L46.5931 9.96554L44.9088 15.0183C44.7684 15.2991 44.9088 15.5798 45.1895 15.8605C45.4702 16.0008 45.7509 16.0008 46.0316 15.8605L50.3827 12.7727L54.7337 15.8605C54.8741 16.0008 55.0144 16.0008 55.1548 16.0008C55.2951 16.0008 55.4355 16.0008 55.5758 15.8605C55.8565 15.7201 55.9969 15.4394 55.8565 15.0183L54.1723 9.96554L58.5233 6.87771C58.804 6.59699 58.9444 6.31628 58.804 6.03557Z" fill="#F9D58E"/>
<path d="M79.7571 6.03557C79.6168 5.75486 79.3361 5.6145 79.0554 5.6145H73.7218L72.0376 0.561693C71.8972 0.00026916 70.9147 0.00026916 70.634 0.561693L68.9497 5.6145H63.6162C63.3355 5.6145 63.0548 5.75486 62.9144 6.03557C62.7741 6.31628 62.9144 6.59699 63.1951 6.87771L67.5462 9.96554L65.8619 15.0183C65.7216 15.2991 65.8619 15.5798 66.1426 15.8605C66.4233 16.0008 66.704 16.0008 66.9848 15.8605L71.3358 12.7727L75.6868 15.8605C75.8272 16.0008 75.9675 16.0008 76.1079 16.0008C76.2482 16.0008 76.3886 16.0008 76.529 15.8605C76.8097 15.7201 76.95 15.4394 76.8097 15.0183L75.1254 9.96554L79.4764 6.87771C79.7571 6.59699 79.8975 6.31628 79.7571 6.03557Z" fill="#F9D58E"/>
<path d="M100.71 5.89494C100.57 5.61423 100.289 5.47388 100.008 5.47388H94.675L92.9907 0.421068C92.8503 -0.140356 91.8678 -0.140356 91.5871 0.421068L89.9029 5.47388H84.5693C84.2886 5.47388 84.0079 5.61423 83.8676 5.89494C83.7272 6.17565 83.8676 6.45637 84.1483 6.73708L88.4993 9.82491L86.815 14.8777C86.6747 15.1584 86.815 15.4391 87.0957 15.7199C87.3765 15.8602 87.6572 15.8602 87.9379 15.7199L92.2889 12.632L96.6399 15.7199C96.7803 15.8602 96.9207 15.8602 97.061 15.8602C97.2014 15.8602 97.3417 15.8602 97.4821 15.7199C97.7628 15.5795 97.9031 15.2988 97.7628 14.8777L96.0785 9.82491L100.43 6.73708C100.71 6.45637 100.851 6.17565 100.71 5.89494Z" fill="#F9D58E"/>
</svg>
